<svg width="75" height="75" viewBox="0 0 75 75" fill="none" xmlns="http://www.w3.org/2000/svg">
<g filter="url(#filter0_d_820_1808)">
<rect x="4" width="67" height="67" rx="20" fill="#FF0000"/>
</g>
<path d="M28.2091 27.6182C28.2875 26.9126 28.3267 26.5598 28.3843 26.2566C29.0585 22.7085 32.0264 20.052 35.6274 19.7738C35.9351 19.75 36.29 19.75 37 19.75V19.75C37.71 19.75 38.0649 19.75 38.3726 19.7738C41.9736 20.052 44.9415 22.7085 45.6157 26.2566C45.6733 26.5598 45.7125 26.9126 45.7909 27.6182L46.1896 31.2064C46.3066 32.2597 46.3652 32.7864 46.4908 33.296C46.5979 33.7304 46.7412 34.1551 46.9193 34.5655C47.1282 35.0471 47.4009 35.5015 47.9461 36.4102L49.4326 38.8877C50.2384 40.2306 50.6412 40.9021 50.354 41.4094C50.0668 41.9167 49.2837 41.9167 47.7176 41.9167H26.2824C24.7163 41.9167 23.9332 41.9167 23.646 41.4094C23.3588 40.9021 23.7616 40.2306 24.5674 38.8877L26.0539 36.4102C26.5991 35.5015 26.8718 35.0471 27.0807 34.5655C27.2588 34.1551 27.4021 33.7304 27.5092 33.296C27.6348 32.7864 27.6934 32.2597 27.8104 31.2064L28.2091 27.6182Z" stroke="white" stroke-width="2"/>
<path d="M30.6667 41.9167C30.6667 42.7484 30.8305 43.5719 31.1488 44.3403C31.4671 45.1087 31.9336 45.8069 32.5217 46.395C33.1098 46.9831 33.808 47.4496 34.5763 47.7679C35.3447 48.0862 36.1683 48.25 37 48.25C37.8317 48.25 38.6553 48.0862 39.4237 47.7679C40.1921 47.4496 40.8902 46.9831 41.4784 46.395C42.0665 45.8069 42.533 45.1087 42.8512 44.3403C43.1695 43.5719 43.3333 42.7484 43.3333 41.9167" stroke="white" stroke-width="2" stroke-linecap="round"/>
<defs>
<filter id="filter0_d_820_1808" x="0" y="0" width="75" height="75" filterUnits="userSpaceOnUse" color-interpolation-filters="sRGB">
<feFlood flood-opacity="0" result="BackgroundImageFix"/>
<feColorMatrix in="SourceAlpha" type="matrix" values="0 0 0 0 0 0 0 0 0 0 0 0 0 0 0 0 0 0 127 0" result="hardAlpha"/>
<feOffset dy="4"/>
<feGaussianBlur stdDeviation="2"/>
<feComposite in2="hardAlpha" operator="out"/>
<feColorMatrix type="matrix" values="0 0 0 0 0 0 0 0 0 0 0 0 0 0 0 0 0 0 0.25 0"/>
<feBlend mode="normal" in2="BackgroundImageFix" result="effect1_dropShadow_820_1808"/>
<feBlend mode="normal" in="SourceGraphic" in2="effect1_dropShadow_820_1808" result="shape"/>
</filter>
</defs>
</svg>
