<svg width="42" height="42" viewBox="0 0 42 42" fill="none" xmlns="http://www.w3.org/2000/svg">
<rect x="4" y="4" width="34" height="34" rx="2" fill="#3A81F1"/>
<path d="M4.375 7.575C4.375 6.4549 4.375 5.89484 4.59299 5.46702C4.78473 5.09069 5.09069 4.78473 5.46702 4.59299C5.89484 4.375 6.45489 4.375 7.575 4.375H34.425C35.5451 4.375 36.1052 4.375 36.533 4.59299C36.9093 4.78473 37.2153 5.09069 37.407 5.46702C37.625 5.89484 37.625 6.45489 37.625 7.575V34.425C37.625 35.5451 37.625 36.1052 37.407 36.533C37.2153 36.9093 36.9093 37.2153 36.533 37.407C36.1052 37.625 35.5451 37.625 34.425 37.625H7.575C6.4549 37.625 5.89484 37.625 5.46702 37.407C5.09069 37.2153 4.78473 36.9093 4.59299 36.533C4.375 36.1052 4.375 35.5451 4.375 34.425V7.575Z" stroke="#222222" stroke-linecap="round"/>
<path d="M21.875 26.3015C21.875 30.3511 17.5708 33.109 16.1787 33.8951C15.9103 34.0467 15.5897 34.0467 15.3213 33.8951C13.9292 33.109 9.625 30.3511 9.625 26.3015C9.625 22.5956 12.5928 20.125 15.75 20.125C19.0167 20.125 21.875 22.5956 21.875 26.3015Z" stroke="white"/>
<path d="M32.375 37.625L21.875 11.375" stroke="#222222"/>
<path d="M37.625 7.875L4.375 14.875" stroke="#222222"/>
<circle cx="15.75" cy="26.25" r="1.75" fill="white"/>
</svg>
