<svg width="48" height="50" viewBox="0 0 48 50" fill="none" xmlns="http://www.w3.org/2000/svg">
<rect x="12.2353" y="8.49072" width="25.4118" height="34.9057" rx="2" fill="#3A81F1"/>
<rect x="12" y="8.3335" width="26" height="35.4167" rx="2" stroke="#222222"/>
<path d="M8 18.75H16" stroke="#222222" stroke-linecap="round"/>
<path d="M8 35.4165H16" stroke="#222222" stroke-linecap="round"/>
<path d="M21.4509 28.9665C21.0509 28.9665 20.7392 28.8498 20.5159 28.6165C20.2925 28.3832 20.1809 28.0582 20.1809 27.6415C20.1809 27.3782 20.2092 27.1298 20.2659 26.8965C20.3259 26.6598 20.4092 26.4448 20.5159 26.2515C20.6259 26.0548 20.7559 25.8865 20.9059 25.7465C21.0592 25.6032 21.2309 25.4932 21.4209 25.4165C21.6142 25.3365 21.8225 25.2965 22.0459 25.2965C22.2525 25.2965 22.4325 25.3148 22.5859 25.3515C22.7392 25.3882 22.8859 25.4398 23.0259 25.5065L22.8509 25.8965C22.7342 25.8398 22.6092 25.7915 22.4759 25.7515C22.3425 25.7115 22.1959 25.6915 22.0359 25.6915C21.8359 25.6915 21.6509 25.7382 21.4809 25.8315C21.3142 25.9248 21.1675 26.0582 21.0409 26.2315C20.9175 26.4015 20.8209 26.6032 20.7509 26.8365C20.6842 27.0698 20.6509 27.3265 20.6509 27.6065C20.6509 27.7865 20.6809 27.9498 20.7409 28.0965C20.8009 28.2432 20.8942 28.3598 21.0209 28.4465C21.1475 28.5298 21.3092 28.5715 21.5059 28.5715C21.6225 28.5715 21.7292 28.5632 21.8259 28.5465C21.9259 28.5265 22.0092 28.5048 22.0759 28.4815L22.3009 27.4265H21.6409L21.7309 27.0365H22.8359L22.4509 28.7815C22.3075 28.8348 22.1559 28.8798 21.9959 28.9165C21.8392 28.9498 21.6575 28.9665 21.4509 28.9665ZM24.6985 28.9665C24.4285 28.9665 24.2002 28.9115 24.0135 28.8015C23.8302 28.6915 23.6902 28.5348 23.5935 28.3315C23.5002 28.1248 23.4535 27.8815 23.4535 27.6015C23.4535 27.3948 23.4702 27.1948 23.5035 27.0015C23.5402 26.8082 23.5935 26.6265 23.6635 26.4565C23.7335 26.2832 23.8185 26.1265 23.9185 25.9865C24.0185 25.8432 24.1318 25.7198 24.2585 25.6165C24.3885 25.5132 24.5318 25.4332 24.6885 25.3765C24.8485 25.3198 25.0185 25.2915 25.1985 25.2915C25.5818 25.2915 25.8785 25.4148 26.0885 25.6615C26.3018 25.9082 26.4085 26.2465 26.4085 26.6765C26.4085 26.8832 26.3918 27.0832 26.3585 27.2765C26.3252 27.4665 26.2768 27.6482 26.2135 27.8215C26.1502 27.9915 26.0702 28.1465 25.9735 28.2865C25.8768 28.4265 25.7652 28.5482 25.6385 28.6515C25.5118 28.7515 25.3702 28.8298 25.2135 28.8865C25.0568 28.9398 24.8852 28.9665 24.6985 28.9665ZM24.7185 28.5715C24.8452 28.5715 24.9618 28.5482 25.0685 28.5015C25.1785 28.4548 25.2785 28.3898 25.3685 28.3065C25.4585 28.2198 25.5385 28.1182 25.6085 28.0015C25.6785 27.8815 25.7368 27.7515 25.7835 27.6115C25.8335 27.4682 25.8702 27.3182 25.8935 27.1615C25.9202 27.0015 25.9335 26.8365 25.9335 26.6665C25.9335 26.3565 25.8652 26.1165 25.7285 25.9465C25.5918 25.7732 25.4035 25.6865 25.1635 25.6865C25.0368 25.6865 24.9185 25.7098 24.8085 25.7565C24.6985 25.7998 24.5968 25.8632 24.5035 25.9465C24.4135 26.0298 24.3318 26.1298 24.2585 26.2465C24.1885 26.3632 24.1285 26.4932 24.0785 26.6365C24.0285 26.7765 23.9902 26.9265 23.9635 27.0865C23.9368 27.2465 23.9235 27.4132 23.9235 27.5865C23.9235 27.7932 23.9552 27.9698 24.0185 28.1165C24.0818 28.2632 24.1735 28.3765 24.2935 28.4565C24.4135 28.5332 24.5552 28.5715 24.7185 28.5715ZM27.3274 28.9165L27.0074 25.3465H27.4424L27.6274 27.6065C27.6374 27.6965 27.6441 27.7882 27.6474 27.8815C27.6541 27.9748 27.6574 28.0665 27.6574 28.1565C27.6608 28.2465 27.6608 28.3315 27.6574 28.4115H27.6674C27.7008 28.3315 27.7358 28.2498 27.7724 28.1665C27.8091 28.0798 27.8491 27.9898 27.8924 27.8965C27.9391 27.8032 27.9874 27.7048 28.0374 27.6015L29.1524 25.3465H29.6424L27.8074 28.9165H27.3274Z" fill="white"/>
</svg>
