<svg width="40" height="40" viewBox="0 0 40 40" fill="none" xmlns="http://www.w3.org/2000/svg">
<path d="M5 6C5 5.44772 5.44772 5 6 5H25.0486C25.792 5 26.2755 5.78231 25.9431 6.44721L25.9059 6.52152C25.8578 6.61766 25.8256 6.72091 25.8104 6.82731L25.01 12.4296C25.0034 12.4765 25 12.5237 25 12.5711V20V33.6126C25 34.2951 24.3313 34.7771 23.6838 34.5613L20.393 33.4643C20.1414 33.3805 19.8667 33.4 19.6295 33.5186L15.4472 35.6097C15.1657 35.7505 14.8343 35.7505 14.5528 35.6097L10.3705 33.5186C10.1333 33.4 9.85865 33.3805 9.60704 33.4643L6.31623 34.5613C5.6687 34.7771 5 34.2951 5 33.6126V6Z" fill="#3A81F1"/>
<path d="M30 5.00002V5.00002C31.8692 5.00001 32.8038 5.00001 33.5 5.40194C33.9561 5.66524 34.3348 6.04396 34.5981 6.50002C35 7.19617 35 8.13078 35 10L35 14C35 14.4714 35 14.7071 34.8536 14.8536C34.7071 15 34.4714 15 34 15L25 15M30 5.00002V5.00002C28.1308 5.00001 27.1962 5.00001 26.5 5.40194C26.0439 5.66524 25.6652 6.04396 25.4019 6.50002C25 7.19617 25 8.13078 25 10L25 15M30 5.00002L9 5.00001C7.11438 5.00001 6.17157 5.00001 5.58579 5.5858C5 6.17159 5 7.1144 5 9.00001L5 35L10 33.3333L15 35L20 33.3333L25 35L25 15" stroke="#222222"/>
<path d="M11.6667 11.6665L18.3333 11.6665" stroke="#222222" stroke-linecap="round"/>
<path d="M13.3333 18.3335H11.6667" stroke="#222222" stroke-linecap="round"/>
<path d="M11.6667 25L16.6667 25" stroke="#222222" stroke-linecap="round"/>
</svg>
