<svg width="104" height="16" viewBox="0 0 104 16" fill="none" xmlns="http://www.w3.org/2000/svg">
<path d="M3.65282 8.4C3.72282 8.59 3.81782 8.775 3.93782 8.955C4.38782 9.605 5.06282 9.93 5.96282 9.93C6.66282 9.93 7.31282 9.735 7.91282 9.345C7.06282 8.235 5.64282 7.92 3.65282 8.4ZM9.53282 7.635C9.71282 7.295 9.85282 6.925 9.95282 6.525C10.1728 5.545 10.0528 4.725 9.59282 4.065C9.14282 3.405 8.46282 3.075 7.55282 3.075C6.65282 3.075 5.82282 3.4 5.06282 4.05C4.42282 4.62 3.96782 5.3 3.69782 6.09C6.36782 5.72 8.20282 6.095 9.20282 7.215C9.31282 7.365 9.42282 7.505 9.53282 7.635ZM9.57782 10.905C8.27782 11.865 6.88782 12.345 5.40782 12.345C3.79782 12.345 2.55782 11.78 1.68782 10.65C0.817816 9.52 0.572816 8.145 0.952816 6.525C1.32282 4.895 2.20282 3.515 3.59282 2.385C4.99282 1.245 6.49782 0.674999 8.10782 0.674999C9.72782 0.674999 10.9678 1.245 11.8278 2.385C12.6978 3.515 12.9478 4.895 12.5778 6.525C12.3378 7.545 11.8978 8.465 11.2578 9.285C11.7178 9.595 12.1328 9.735 12.5028 9.705L11.9478 12.09C11.3478 12.14 10.5578 11.745 9.57782 10.905ZM21.8225 11.085C21.7625 11.335 21.6175 11.55 21.3875 11.73C21.1575 11.91 20.9075 12 20.6375 12H13.7825C13.4325 12 13.1675 11.885 12.9875 11.655C12.8075 11.415 12.7575 11.125 12.8375 10.785L15.3575 0.929999H18.0425L15.9575 9.03C15.9275 9.14 15.9425 9.235 16.0025 9.315C16.0725 9.385 16.1675 9.42 16.2875 9.42H19.1225C19.2525 9.42 19.3675 9.38 19.4675 9.3C19.5775 9.22 19.6475 9.12 19.6775 9L21.7475 0.929999H24.4175L21.8225 11.085ZM25.8329 12H23.1329L25.9979 0.929999H28.6679L25.8329 12ZM37.4927 7.755L36.6227 11.085C36.5527 11.335 36.4027 11.55 36.1727 11.73C35.9527 11.91 35.7127 12 35.4527 12H28.6127C28.2627 12 27.9927 11.885 27.8027 11.655C27.6127 11.425 27.5627 11.135 27.6527 10.785L29.9477 1.845C30.0077 1.595 30.1527 1.38 30.3827 1.2C30.6127 1.02 30.8577 0.929999 31.1177 0.929999H37.9577C38.3077 0.929999 38.5777 1.05 38.7677 1.29C38.9577 1.53 39.0077 1.82 38.9177 2.16L38.1377 5.175H35.4677L35.7977 3.9C35.8277 3.79 35.8127 3.695 35.7527 3.615C35.6927 3.535 35.6077 3.495 35.4977 3.495H32.6327C32.5127 3.495 32.3977 3.545 32.2877 3.645C32.1777 3.735 32.1077 3.835 32.0777 3.945L30.7877 9.03C30.7577 9.14 30.7727 9.235 30.8327 9.315C30.8927 9.385 30.9777 9.42 31.0877 9.42H33.9377C34.0577 9.42 34.1727 9.38 34.2827 9.3C34.3927 9.21 34.4627 9.11 34.4927 9L34.8077 7.755H37.4927ZM45.7991 3.84C45.8791 3.8 45.9541 3.735 46.0241 3.645C46.0941 3.555 46.1391 3.465 46.1591 3.375L46.7891 0.929999H49.4591L48.5591 4.455C48.4791 4.765 48.3391 5.04 48.1391 5.28C47.9491 5.51 47.7241 5.69 47.4641 5.82L45.4841 6.81L46.0391 9.12C46.0591 9.2 46.1041 9.27 46.1741 9.33C46.2541 9.39 46.3341 9.42 46.4141 9.42H47.5241L46.8641 12H44.9741C44.7141 12 44.4691 11.91 44.2391 11.73C44.0191 11.55 43.8791 11.335 43.8191 11.085L43.0841 8.01L41.2241 8.94L40.4441 12H37.7591L40.6091 0.929999H43.2791L42.0491 5.7L45.7991 3.84Z" fill="#3A81F1"/>
<path d="M52.1718 12.15C51.5118 12.15 50.9468 12 50.4768 11.7C50.0068 11.4 49.6518 10.965 49.4118 10.395C49.1718 9.825 49.0518 9.14 49.0518 8.34C49.0518 7.71 49.1168 7.065 49.2468 6.405C49.3868 5.735 49.5918 5.09 49.8618 4.47C50.1418 3.84 50.4868 3.275 50.8968 2.775C51.3168 2.275 51.8018 1.88 52.3518 1.59C52.9118 1.29 53.5418 1.14 54.2418 1.14C54.6818 1.14 55.0818 1.19 55.4418 1.29C55.8118 1.38 56.1568 1.52 56.4768 1.71L55.8918 2.775C55.6718 2.635 55.4268 2.52 55.1568 2.43C54.8868 2.33 54.5768 2.28 54.2268 2.28C53.7068 2.28 53.2418 2.41 52.8318 2.67C52.4218 2.92 52.0618 3.26 51.7518 3.69C51.4518 4.11 51.1968 4.585 50.9868 5.115C50.7868 5.635 50.6368 6.17 50.5368 6.72C50.4468 7.26 50.4018 7.78 50.4018 8.28C50.4018 9.15 50.5768 9.825 50.9268 10.305C51.2768 10.775 51.7818 11.01 52.4418 11.01C52.7718 11.01 53.0968 10.97 53.4168 10.89C53.7368 10.81 54.0618 10.71 54.3918 10.59L54.3768 11.745C54.0468 11.875 53.7068 11.975 53.3568 12.045C53.0068 12.115 52.6118 12.15 52.1718 12.15ZM58.7893 12.135C58.2793 12.135 57.8393 12.025 57.4693 11.805C57.0993 11.575 56.8143 11.25 56.6143 10.83C56.4143 10.4 56.3143 9.895 56.3143 9.315C56.3143 8.855 56.3593 8.375 56.4493 7.875C56.5493 7.365 56.6943 6.875 56.8843 6.405C57.0743 5.925 57.3193 5.49 57.6193 5.1C57.9193 4.71 58.2693 4.405 58.6693 4.185C59.0693 3.955 59.5243 3.84 60.0343 3.84C60.5543 3.84 60.9993 3.955 61.3693 4.185C61.7393 4.415 62.0193 4.74 62.2093 5.16C62.4093 5.58 62.5093 6.085 62.5093 6.675C62.5093 7.165 62.4593 7.665 62.3593 8.175C62.2593 8.685 62.1093 9.175 61.9093 9.645C61.7093 10.115 61.4643 10.54 61.1743 10.92C60.8843 11.29 60.5393 11.585 60.1393 11.805C59.7393 12.025 59.2893 12.135 58.7893 12.135ZM58.9093 11.07C59.1793 11.07 59.4293 10.99 59.6593 10.83C59.8993 10.67 60.1143 10.45 60.3043 10.17C60.4943 9.88 60.6543 9.55 60.7843 9.18C60.9243 8.8 61.0343 8.39 61.1143 7.95C61.1943 7.51 61.2343 7.05 61.2343 6.57C61.2343 6.28 61.1893 6.01 61.0993 5.76C61.0093 5.5 60.8743 5.295 60.6943 5.145C60.5143 4.985 60.2743 4.905 59.9743 4.905C59.6743 4.905 59.3993 4.995 59.1493 5.175C58.8993 5.345 58.6743 5.585 58.4743 5.895C58.2843 6.195 58.1243 6.535 57.9943 6.915C57.8643 7.295 57.7643 7.695 57.6943 8.115C57.6243 8.535 57.5893 8.94 57.5893 9.33C57.5893 9.89 57.6993 10.32 57.9193 10.62C58.1493 10.92 58.4793 11.07 58.9093 11.07ZM63.4142 12L65.1242 3.96H66.1442L65.9942 5.28H66.0542C66.2242 5.03 66.4142 4.795 66.6242 4.575C66.8342 4.345 67.0742 4.16 67.3442 4.02C67.6142 3.88 67.9142 3.81 68.2442 3.81C68.7142 3.81 69.0792 3.94 69.3392 4.2C69.5992 4.46 69.7592 4.835 69.8192 5.325H69.8642C70.0442 5.055 70.2492 4.805 70.4792 4.575C70.7092 4.345 70.9642 4.16 71.2442 4.02C71.5242 3.88 71.8342 3.81 72.1742 3.81C72.6942 3.81 73.0942 3.965 73.3742 4.275C73.6642 4.575 73.8092 5.02 73.8092 5.61C73.8092 5.81 73.7942 6.015 73.7642 6.225C73.7342 6.425 73.6992 6.63 73.6592 6.84L72.5642 12H71.3042L72.3992 6.825C72.4492 6.615 72.4842 6.425 72.5042 6.255C72.5242 6.085 72.5342 5.935 72.5342 5.805C72.5342 5.525 72.4642 5.305 72.3242 5.145C72.1942 4.985 71.9942 4.905 71.7242 4.905C71.5042 4.905 71.2842 4.97 71.0642 5.1C70.8442 5.22 70.6342 5.405 70.4342 5.655C70.2442 5.895 70.0692 6.195 69.9092 6.555C69.7492 6.915 69.6192 7.33 69.5192 7.8L68.6342 12H67.3892L68.4842 6.78C68.5242 6.57 68.5542 6.39 68.5742 6.24C68.5942 6.09 68.6042 5.96 68.6042 5.85C68.6042 5.54 68.5392 5.305 68.4092 5.145C68.2892 4.985 68.0892 4.905 67.8092 4.905C67.5692 4.905 67.3342 4.975 67.1042 5.115C66.8842 5.245 66.6692 5.45 66.4592 5.73C66.2492 6 66.0592 6.345 65.8892 6.765C65.7292 7.175 65.5942 7.655 65.4842 8.205L64.6742 12H63.4142ZM74.0646 15.555L76.5096 3.96H77.5596L77.3796 5.34H77.4246C77.6346 5.04 77.8546 4.78 78.0846 4.56C78.3246 4.33 78.5746 4.15 78.8346 4.02C79.1046 3.89 79.3946 3.825 79.7046 3.825C80.0746 3.825 80.3946 3.92 80.6646 4.11C80.9446 4.29 81.1596 4.57 81.3096 4.95C81.4696 5.32 81.5496 5.785 81.5496 6.345C81.5496 6.885 81.4946 7.43 81.3846 7.98C81.2846 8.53 81.1346 9.055 80.9346 9.555C80.7446 10.055 80.5046 10.5 80.2146 10.89C79.9246 11.28 79.5946 11.59 79.2246 11.82C78.8546 12.04 78.4446 12.15 77.9946 12.15C77.6946 12.15 77.4346 12.095 77.2146 11.985C76.9946 11.865 76.8096 11.705 76.6596 11.505C76.5096 11.305 76.3846 11.09 76.2846 10.86H76.2246C76.2046 11.06 76.1746 11.295 76.1346 11.565C76.0946 11.835 76.0496 12.065 75.9996 12.255L75.3096 15.555H74.0646ZM77.8896 11.085C78.1696 11.085 78.4296 10.99 78.6696 10.8C78.9196 10.61 79.1396 10.35 79.3296 10.02C79.5296 9.69 79.6946 9.325 79.8246 8.925C79.9646 8.515 80.0696 8.09 80.1396 7.65C80.2196 7.21 80.2596 6.78 80.2596 6.36C80.2596 5.86 80.1746 5.49 80.0046 5.25C79.8346 5 79.5796 4.875 79.2396 4.875C79.0296 4.875 78.8146 4.945 78.5946 5.085C78.3846 5.215 78.1846 5.4 77.9946 5.64C77.8046 5.88 77.6296 6.16 77.4696 6.48C77.3096 6.79 77.1696 7.12 77.0496 7.47C76.9396 7.82 76.8496 8.18 76.7796 8.55C76.7196 8.92 76.6896 9.28 76.6896 9.63C76.6896 10.08 76.7846 10.435 76.9746 10.695C77.1746 10.955 77.4796 11.085 77.8896 11.085ZM82.4496 12L84.8796 0.599999H86.1396L83.7096 12H82.4496ZM88.1734 12.15C87.7934 12.15 87.4634 12.055 87.1834 11.865C86.9134 11.675 86.7034 11.39 86.5534 11.01C86.4034 10.63 86.3284 10.17 86.3284 9.63C86.3284 9.09 86.3784 8.545 86.4784 7.995C86.5884 7.435 86.7434 6.905 86.9434 6.405C87.1534 5.905 87.3984 5.46 87.6784 5.07C87.9684 4.68 88.2984 4.375 88.6684 4.155C89.0484 3.925 89.4584 3.81 89.8984 3.81C90.1984 3.81 90.4584 3.87 90.6784 3.99C90.8984 4.1 91.0834 4.255 91.2334 4.455C91.3834 4.645 91.5034 4.87 91.5934 5.13H91.6534L92.0584 3.96H93.0634L91.3534 12H90.3484L90.4984 10.635H90.4684C90.2684 10.925 90.0484 11.185 89.8084 11.415C89.5784 11.635 89.3284 11.815 89.0584 11.955C88.7884 12.085 88.4934 12.15 88.1734 12.15ZM88.6084 11.085C88.9484 11.085 89.2684 10.95 89.5684 10.68C89.8684 10.41 90.1334 10.055 90.3634 9.615C90.5934 9.165 90.7734 8.68 90.9034 8.16C91.0034 7.78 91.0684 7.44 91.0984 7.14C91.1384 6.84 91.1584 6.57 91.1584 6.33C91.1584 5.9 91.0584 5.555 90.8584 5.295C90.6584 5.025 90.3834 4.89 90.0334 4.89C89.7534 4.89 89.4884 4.985 89.2384 5.175C88.9984 5.355 88.7784 5.605 88.5784 5.925C88.3784 6.245 88.2034 6.61 88.0534 7.02C87.9134 7.42 87.8034 7.845 87.7234 8.295C87.6534 8.735 87.6184 9.17 87.6184 9.6C87.6184 10.1 87.7034 10.475 87.8734 10.725C88.0434 10.965 88.2884 11.085 88.6084 11.085ZM93.5601 12L95.2701 3.96H96.5301L94.8201 12H93.5601ZM96.2751 2.625C96.0751 2.625 95.9151 2.57 95.7951 2.46C95.6751 2.34 95.6151 2.175 95.6151 1.965C95.6151 1.785 95.6501 1.62 95.7201 1.47C95.7901 1.32 95.8901 1.2 96.0201 1.11C96.1501 1.01 96.3051 0.959999 96.4851 0.959999C96.7051 0.959999 96.8651 1.015 96.9651 1.125C97.0751 1.225 97.1301 1.375 97.1301 1.575C97.1301 1.885 97.0451 2.14 96.8751 2.34C96.7151 2.53 96.5151 2.625 96.2751 2.625ZM97.0786 12L98.7886 3.93H99.8686L99.7036 5.265H99.7336C99.9136 5.005 100.109 4.765 100.319 4.545C100.539 4.325 100.789 4.145 101.069 4.005C101.349 3.855 101.659 3.78 101.999 3.78C102.359 3.78 102.669 3.85 102.929 3.99C103.199 4.13 103.404 4.335 103.544 4.605C103.684 4.875 103.754 5.21 103.754 5.61C103.754 5.84 103.734 6.08 103.694 6.33C103.664 6.58 103.624 6.81 103.574 7.02L102.494 12H101.189L102.254 6.96C102.304 6.73 102.344 6.52 102.374 6.33C102.414 6.13 102.434 5.955 102.434 5.805C102.434 5.515 102.364 5.3 102.224 5.16C102.094 5.01 101.889 4.935 101.609 4.935C101.299 4.935 100.989 5.05 100.679 5.28C100.369 5.5 100.084 5.855 99.8236 6.345C99.5636 6.825 99.3536 7.455 99.1936 8.235L98.3836 12H97.0786Z" fill="black"/>
</svg>
